# xmcd
#
# Track frame offsets: 
#        150
#        16112
#        36940
#        58692
#        75147
#        90425
#        111060
#        129165
#        142455
#        156285
#        174567
#        190002
#
# Disc length: 2797 seconds
#
# Revision: 3
# Processed by: cddbd v1.5.2PL0 Copyright (c) Steve Scherf et al.
# Submitted via: ExactAudioCopy v0.95b3
#
DISCID=8f0aeb0c
DTITLE=Paul Mauriat - Soundtracks
DYEAR=1995
DGENRE=Easy Listening
TTITLE0=I Will Always Love You
TTITLE1=Conquest Of Paradise
TTITLE2=Schindler's List
TTITLE3=Unchained Melody
TTITLE4=Chariots Of Fire
TTITLE5=Calling You
TTITLE6=Can You Feel The Love Tonigth
TTITLE7=Lara's Theme
TTITLE8=Charade
TTITLE9=I Do It For You
TTITLE10=Colors Of The Wind
TTITLE11=Eurostar
EXTD=
EXTT0=
EXTT1=
EXTT2=
EXTT3=
EXTT4=
EXTT5=
EXTT6=
EXTT7=
EXTT8=
EXTT9=
EXTT10=
EXTT11=
PLAYORDER=
